<?xml version="1.0" encoding="UTF-8" standalone="no"?>
<svg
   xmlns:dc="http://purl.org/dc/elements/1.1/"
   xmlns:cc="http://creativecommons.org/ns#"
   xmlns:rdf="http://www.w3.org/1999/02/22-rdf-syntax-ns#"
   xmlns:svg="http://www.w3.org/2000/svg"
   xmlns="http://www.w3.org/2000/svg"
   xmlns:sodipodi="http://sodipodi.sourceforge.net/DTD/sodipodi-0.dtd"
   xmlns:inkscape="http://www.inkscape.org/namespaces/inkscape"
   viewBox="0 0 157.66064 157.48863"
   height="157.48863"
   width="157.66064"
   version="1.1"
   id="svg2"
   inkscape:version="0.91 r13725"
   sodipodi:docname="logo.svg">
  <sodipodi:namedview
     pagecolor="#ffffff"
     bordercolor="#666666"
     borderopacity="1"
     objecttolerance="10"
     gridtolerance="10"
     guidetolerance="10"
     inkscape:pageopacity="0"
     inkscape:pageshadow="2"
     inkscape:window-width="1366"
     inkscape:window-height="705"
     id="namedview6"
     showgrid="false"
     inkscape:zoom="2.1192285"
     inkscape:cx="80.748716"
     inkscape:cy="74.374327"
     inkscape:window-x="-8"
     inkscape:window-y="-8"
     inkscape:window-maximized="1"
     inkscape:current-layer="svg2" />
  <metadata
     id="metadata8">
    <rdf:RDF>
      <cc:Work
         rdf:about="">
        <dc:format>image/svg+xml</dc:format>
        <dc:type
           rdf:resource="http://purl.org/dc/dcmitype/StillImage" />
        <dc:title />
      </cc:Work>
    </rdf:RDF>
  </metadata>
  <defs
     id="defs6" />
  <path
     id="path3338"
     d="M 38.179803,146.37252 C 28.71609,140.59708 16.887531,132.06888 10.43922,121.87693 -4.9857615,95.977801 -1.8877925,58.487621 10.43922,37.876915 16.897437,27.669308 27.604051,16.935525 36.845057,11.404073 56.190199,-0.47901529 79.838278,-2.3111252 100.4715,2.4009746 c 5.41169,1.1848136 15.45964,3.4073326 22.10509,7.3851426 8.97533,5.3724298 18.47051,13.9838298 24.70425,23.7155668 1.96773,3.071919 5.99067,14.246429 5.99067,15.053752 0,0.422262 0.55344,1.837341 1.22987,3.144615 9.06824,37.403968 -1.22023,76.759599 -33.00343,96.674589 -8.77484,5.53343 -18.84802,9.03599 -41.117947,9.11359 -13.89891,0.0484 -30.735988,-4.23896 -42.2002,-11.11571 z m 61.000682,-16.64087 c 5.648805,-1.61467 9.552315,-3.81718 12.091015,-6.02918 0.825,-0.71883 2.47688,-1.50117 3.15,-2.33009 3.65029,-4.49519 4.96945,-5.20306 3.71364,-5.68496 -0.78281,-0.30039 -5.69075,3.52276 -7.46364,4.66804 -3.07508,1.98646 -10.785285,4.2593 -16.665715,4.91277 -7.806997,0.86756 -8.387064,0.61262 -9.269232,-1.91797 2.855132,-4.09462 7.431942,-14.65101 -0.119697,-8.21803 -5.09522,3.45756 -5.661497,5.49856 -9.907017,6.76141 -4.75255,1.41367 -11.72145,-1.00676 -16.838335,-2.76805 -5.944513,-2.04617 -11.262897,-5.73778 -18.042293,-12.52355 -4.684056,-4.68849 -7.803511,-9.388879 -10.341208,-15.582145 -1.748834,-4.268036 -1.859748,-4.996886 -1.832664,-12.04298 0.02632,-6.84711 0.19377,-7.965654 1.923565,-12.849108 2.171478,-6.130392 4.082353,-9.646362 7.453138,-13.713624 3.6982,-4.462322 13.039462,-9.463045 13.039462,-6.980503 0,0.36122 -2.025,2.547891 -4.5,4.859269 -4.320038,4.034436 -9.095551,11.582702 -7.342167,12.255536 5.293764,-4.924278 9.639322,-8.094777 16.532845,-9.917268 l 7.774244,-1.749092 c 6.461306,-1.4537 8.21736,-0.05826 9.460152,0.756042 1.801242,1.180218 1.419828,2.200176 -2.24022,5.990664 -3.23865,3.354072 -9.610396,12.009079 -11.459956,17.316241 -3.014154,8.648868 0.601727,6.735063 7.835837,-0.118071 5.633622,-5.336928 11.045105,-9.20215 19.004105,-12.109522 5.837171,-2.13228 10.497161,-0.613416 12.771441,1.175538 2.03507,1.600788 1.99395,4.658468 4.196685,2.804984 2.20566,-1.855944 5.24118,-6.506456 9.16703,-3.790628 3.31787,2.295234 7.10195,7.368231 10.19746,12.762255 3.61618,6.301308 5.12711,5.574636 4.6553,-2.136492 -0.37339,-6.102684 -3.38906,-8.956221 -2.24705,-8.956221 2.68726,0 7.56121,8.680266 10.52551,13.718772 0.7781,1.128404 5.43597,12.02954 6.27192,11.275398 1.63415,-2.234838 -2.21047,-16.178376 -5.13891,-21.252546 -0.90198,-1.562886 -2.81543,-4.234668 -4.25211,-5.9373 -1.43667,-1.70265 -2.61212,-3.30525 -2.61212,-3.561348 0,-0.256098 -1.54611,-3.435095 6.55898,-0.238828 3.03594,1.19723 -0.062,-3.263238 -7.03133,-5.578698 -11.51,-3.581402 -18.92375,-1.025363 -30.528515,-2.590772 -9.38798,-7.98674 10.174435,-27.034575 0.9038,-28.632769 -4.7083,0.04637 -8.51482,0.125282 -10.15079,2.558431 -2.551053,8.536538 1.66009,18.057656 0.79344,21.066388 -3.196404,11.096895 -5.775723,-12.324201 -35.845581,-7.32019 -14.486978,2.671369 -27.925506,15.125424 -33.119728,30.693462 -1.981934,5.940216 -2.534722,10.66008 -1.971145,16.830186 1.575776,17.251779 11.428058,31.430059 27.19831,39.140649 3.680909,1.79972 7.772563,3.45577 9.092563,3.6801 1.32,0.22434 3.685098,0.82222 5.255772,1.32862 4.67763,1.50812 10.31373,1.95003 22.044228,1.72842 9.735041,-0.18391 12.573021,-0.3995 17.308981,-1.75324 z"
     style="fill:#927548" />
  <path
     style="opacity:1;fill:#ffffff;fill-opacity:1;stroke-width:0.92400002;stroke-miterlimit:4;stroke-dasharray:none"
     d="M 58.619235,129.16694 C 41.771455,124.69596 30.047225,115.81951 23.519964,102.59319 14.63837,84.596244 17.660767,65.503874 31.725625,50.75834 41.548973,40.459586 55.63023,35.711404 68.379369,38.398744 c 5.831305,1.229158 8.668177,2.639082 14.172929,7.04394 2.340709,1.873016 4.507292,3.405485 4.814629,3.405485 1.505685,0 2.100044,-3.051496 1.550642,-7.961188 -0.310906,-2.778404 -0.575621,-7.518891 -0.58826,-10.534415 -0.03018,-7.202918 0.572652,-7.863723 7.173848,-7.863723 l 4.815023,0 0.22044,1.931301 c 0.13058,1.144156 -0.890936,4.721518 -2.506356,8.777246 -3.383877,8.495651 -3.884451,11.822103 -2.25475,14.983454 1.122146,2.176775 1.476376,2.364752 5.207986,2.763703 2.20217,0.235437 7.51765,0.460659 11.81217,0.500493 10.94748,0.101547 17.57989,1.74568 21.88773,5.425831 l 1.66831,1.425225 -2.00197,-0.500487 c -2.9779,-0.744466 -5.84673,-0.699209 -6.12094,0.09656 -0.13314,0.386343 1.15652,2.488415 2.8659,4.671273 1.70937,2.182859 3.96504,5.781304 5.01259,7.996545 2.27118,4.802846 4.76367,14.232448 4.4452,16.817107 -0.19425,1.576491 -0.69557,0.923888 -3.45325,-4.495363 -5.63601,-11.075568 -12.09156,-19.909004 -13.51177,-18.488792 -0.16744,0.167438 0.21256,1.596538 0.84444,3.175777 1.25517,3.136959 1.6437,10.77486 0.57528,11.309067 -0.36703,0.183514 -2.33976,-2.150616 -4.38384,-5.186956 -4.19612,-6.233042 -8.22375,-10.665317 -10.50164,-11.556721 -1.82171,-0.712889 -4.32058,0.39742 -6.75206,3.000115 -2.03959,2.183191 -2.4401,2.166537 -4.417691,-0.1837 -3.663078,-4.353318 -10.175293,-4.520531 -18.581884,-0.477123 -4.480331,2.154953 -7.60728,4.429142 -18.199925,13.236567 -2.917906,2.42614 -4.896416,3.177787 -4.896416,1.860176 0,-3.540143 6.530504,-14.739266 12.586835,-21.585088 1.885927,-2.131772 3.428958,-4.291891 3.428958,-4.800264 0,-1.659058 -2.835865,-3.002276 -6.321237,-2.994077 -4.657307,0.01095 -15.871078,2.91514 -19.604035,5.077129 -1.706844,0.98854 -4.529759,2.979441 -6.273145,4.424224 -1.743386,1.444784 -3.169793,2.357414 -3.169793,2.028065 0,-1.360981 4.441457,-7.503961 8.582873,-11.870972 4.303623,-4.538055 4.37907,-4.677155 2.645525,-4.877536 -3.713859,-0.429286 -11.352663,5.171158 -15.172464,11.123802 -1.152004,1.795244 -3.052624,5.778843 -4.223599,8.85244 -1.991162,5.226441 -2.130502,6.150193 -2.151526,14.263581 -0.0223,8.607005 -0.0036,8.714577 2.378119,13.680157 4.238728,8.83719 12.149829,17.64052 20.814868,23.16237 4.629917,2.95045 14.879664,6.1871 19.614841,6.19395 5.240912,0.008 6.210128,-0.39546 11.87079,-4.93627 6.844999,-5.49085 7.600684,-4.9818 3.968196,2.67311 -0.888189,1.87173 -1.614893,3.75601 -1.614893,4.1873 0,1.52646 3.20466,2.06975 8.356107,1.41661 9.640516,-1.2223 15.239836,-3.16923 21.553576,-7.49438 1.58566,-1.08624 3.00377,-1.85423 3.15134,-1.70665 0.61099,0.61099 -4.08975,5.41219 -7.59966,7.76208 -8.56972,5.73743 -13.549964,6.79416 -31.756677,6.73831 -12.109775,-0.0372 -13.996377,-0.20179 -19.721498,-1.72109 z"
     id="path3334"
     inkscape:connector-curvature="0" />
  <path
     style="opacity:1;fill:#ffffff;fill-opacity:1;stroke-width:0.92400002;stroke-miterlimit:4;stroke-dasharray:none"
     d="m 66.215126,130.88316 c -4.464625,-0.57788 -13.090761,-2.99712 -17.529865,-4.91634 -17.528495,-7.5783 -28.222248,-21.89309 -30.14648,-40.354464 -1.296238,-12.4363 3.794319,-25.666627 13.647756,-35.470427 8.613129,-8.569741 17.298815,-12.294872 28.83802,-12.368096 9.095622,-0.05772 14.165566,1.651637 20.810432,7.016335 4.803456,3.878046 5.3551,4.163783 6.270777,3.248104 1.214739,-1.214739 1.371721,-3.764177 0.573091,-9.30707 -0.76601,-5.316451 -0.905976,-10.676589 -0.34799,-13.326577 0.402109,-1.909681 2.715644,-2.988596 7.17463,-3.34588 6.060153,-0.485579 6.650923,1.227078 3.270147,9.480188 -2.868242,7.001916 -3.776459,10.039151 -3.776459,12.629136 0,2.385695 0.962747,5.046454 2.196436,6.070325 0.47883,0.397392 4.304459,0.678275 12.343119,0.906246 14.84194,0.42091 19.40507,1.373761 24.50767,5.117578 2.54124,1.864527 2.56569,2.565031 0.0586,1.680493 -1.07074,-0.37778 -2.76947,-0.686873 -3.77496,-0.686873 -2.61146,0 -2.40957,0.972737 1.19322,5.749165 1.66175,2.203082 3.66977,5.290083 4.46226,6.860004 2.03502,4.031349 4.29926,11.995545 4.59747,16.171007 0.23885,3.344411 0.2093,3.490035 -0.52736,2.599168 -0.42921,-0.519057 -2.12016,-3.598007 -3.75766,-6.842113 -3.32087,-6.579087 -7.77497,-13.5971 -10.10744,-15.925606 -2.58771,-2.583308 -2.98784,-1.983801 -1.50689,2.257736 1.69824,4.863851 1.85774,11.308521 0.27988,11.308521 -0.7607,0 -1.12611,-0.474611 -5.08617,-6.606177 -1.59235,-2.46552 -4.17847,-5.795263 -5.74695,-7.399428 -4.31826,-4.416545 -6.06411,-4.504542 -10.41824,-0.525119 l -2.68957,2.458116 -1.714085,-1.946383 c -4.273621,-4.85279 -9.725548,-5.10162 -18.7014,-0.853544 -4.955275,2.345223 -9.359406,5.406567 -14.627964,10.168003 -8.423335,7.612553 -10.29923,7.449555 -7.053234,-0.61286 1.494117,-3.711091 6.37308,-11.025049 10.763678,-16.135611 1.998633,-2.326366 3.573966,-4.533447 3.500741,-4.904626 -0.07322,-0.371178 -0.733408,-1.122056 -1.467071,-1.668617 -1.969939,-1.467557 -7.093171,-1.333176 -14.001836,0.367264 -6.954292,1.711671 -11.117733,3.651268 -15.730329,7.328197 -2.033707,1.621167 -3.805951,2.839275 -3.93832,2.706906 -0.678609,-0.678609 3.355423,-6.59953 7.498292,-11.005562 2.541242,-2.702667 4.620439,-5.117141 4.620439,-5.365498 0,-0.939821 -3.040248,-0.395489 -5.695464,1.019727 -6.202252,3.305765 -10.955371,9.179853 -14.273261,17.639443 -2.376516,6.059379 -2.822301,8.971576 -2.576143,16.829275 0.203393,6.492566 0.279574,6.920523 1.896932,10.656321 2.561472,5.916526 6.279747,11.106843 11.810806,16.486633 7.769747,7.55725 13.936709,11.05113 23.591707,13.36585 7.07843,1.69701 10.492125,1.16223 14.852646,-2.32676 4.254779,-3.40438 7.512771,-5.70092 8.087617,-5.70092 1.05865,0 0.481039,2.70383 -1.360863,6.37024 -1.038113,2.06643 -1.887479,3.90524 -1.887479,4.08625 0,2.00714 5.505282,2.3899 13.077655,0.90926 6.603886,-1.29128 11.085026,-3.05202 15.932656,-6.26029 2.33042,-1.54234 4.31075,-2.58338 4.40073,-2.31345 0.32192,0.96575 -4.41624,5.76202 -8.14449,8.24438 -4.20532,2.80001 -8.65276,4.71713 -13.402394,5.77728 -3.678079,0.82097 -25.371393,1.29483 -30.26708,0.66114 z"
     id="path3336"
     inkscape:connector-curvature="0" />
</svg>
